{
  "asset": {
    "version": "2.0",
    "generator": "Tellus Panorama Skybox Maker"
  },
  "extensionsUsed": [
    "KHR_materials_unlit"
  ],
  "scene": 0,
  "scenes": [
    {
      "nodes": [
        0
      ]
    }
  ],
  "nodes": [
    {
      "mesh": 0,
      "name": "Tellus_Skybox_Panorama",
      "extras": {
        "tellusSkyboxHorizonOffset": 0.18,
        "tellusSkyboxYawOffset": 3.141592653589793
      }
    }
  ],
  "meshes": [
    {
      "name": "Tellus_Skybox_Sphere",
      "primitives": [
        {
          "attributes": {
            "POSITION": 0,
            "TEXCOORD_0": 1
          },
          "indices": 2,
          "material": 0
        }
      ]
    }
  ],
  "buffers": [
    {
      "uri": "skybox.bin",
      "byteLength": 67476
    }
  ],
  "bufferViews": [
    {
      "buffer": 0,
      "byteOffset": 0,
      "byteLength": 25740,
      "target": 34962
    },
    {
      "buffer": 0,
      "byteOffset": 25740,
      "byteLength": 17160,
      "target": 34962
    },
    {
      "buffer": 0,
      "byteOffset": 42900,
      "byteLength": 24576,
      "target": 34963
    }
  ],
  "accessors": [
    {
      "bufferView": 0,
      "componentType": 5126,
      "count": 2145,
      "type": "VEC3",
      "min": [
        -1,
        -1,
        -1
      ],
      "max": [
        1,
        1,
        1
      ]
    },
    {
      "bufferView": 1,
      "componentType": 5126,
      "count": 2145,
      "type": "VEC2",
      "min": [
        0,
        0
      ],
      "max": [
        1,
        1
      ]
    },
    {
      "bufferView": 2,
      "componentType": 5123,
      "count": 12288,
      "type": "SCALAR",
      "min": [
        0
      ],
      "max": [
        2144
      ]
    }
  ],
  "images": [
    {
      "uri": "panorama.png"
    }
  ],
  "samplers": [
    {
      "magFilter": 9729,
      "minFilter": 9729,
      "wrapS": 10497,
      "wrapT": 33071
    }
  ],
  "textures": [
    {
      "source": 0,
      "sampler": 0
    }
  ],
  "materials": [
    {
      "name": "tellus_skybox_panorama",
      "doubleSided": true,
      "pbrMetallicRoughness": {
        "baseColorTexture": {
          "index": 0
        },
        "metallicFactor": 0,
        "roughnessFactor": 1
      },
      "extensions": {
        "KHR_materials_unlit": {}
      }
    }
  ]
}